<svg xmlns="http://www.w3.org/2000/svg" viewBox="0 0 64 64">
  <defs>
    <linearGradient id="g" x1="8" y1="10" x2="56" y2="54" gradientUnits="userSpaceOnUse">
      <stop stop-color="#A5B4FC">
        <animate attributeName="stop-color" dur="6.5s" repeatCount="indefinite"
          values="#A5B4FC;#7DD3FC;#A7F3D0;#A5B4FC"/>
      </stop>
      <stop offset="0.5" stop-color="#7DD3FC">
        <animate attributeName="stop-color" dur="6.5s" repeatCount="indefinite"
          values="#7DD3FC;#A7F3D0;#A5B4FC;#7DD3FC"/>
      </stop>
      <stop offset="1" stop-color="#A7F3D0">
        <animate attributeName="stop-color" dur="6.5s" repeatCount="indefinite"
          values="#A7F3D0;#A5B4FC;#7DD3FC;#A7F3D0"/>
      </stop>
    </linearGradient>
    <linearGradient id="s" x1="0" y1="0" x2="64" y2="64" gradientUnits="userSpaceOnUse">
      <stop stop-color="rgba(255,255,255,0.0)"/>
      <stop offset="0.35" stop-color="rgba(255,255,255,0.18)"/>
      <stop offset="0.65" stop-color="rgba(255,255,255,0.0)"/>
    </linearGradient>
  </defs>
  <rect width="64" height="64" rx="14" fill="#070a0f"/>
  <path id="p" d="M20 10H44C49.522 10 54 14.478 54 20C54 24 54 26 54 28C54 30 54 31.5 54 32C54 32.5 54 34 54 36C54 38 54 40 54 44C54 49.522 49.522 54 44 54H20C14.478 54 10 49.522 10 44C10 40 10 38 10 36C10 34 10 32.5 10 32C10 31.5 10 30 10 28C10 26 10 24 10 20C10 14.478 14.478 10 20 10Z" fill="url(#g)">
    <animate attributeName="d" dur="4.2s" repeatCount="indefinite"
      values="M20 10H44C49.522 10 54 14.478 54 20C54 24 54 26 54 28C54 30 54 31.5 54 32C54 32.5 54 34 54 36C54 38 54 40 54 44C54 49.522 49.522 54 44 54H20C14.478 54 10 49.522 10 44C10 40 10 38 10 36C10 34 10 32.5 10 32C10 31.5 10 30 10 28C10 26 10 24 10 20C10 14.478 14.478 10 20 10Z;
              M20 10H44C49.522 10 54 14.478 54 20C54 24 54 26 54 28C54 30 54 31.5 54 32C54 32.5 54 34 54 36C54 38 54 40 54 44C54 49.522 49.522 54 44 54H20C14.478 54 10 49.522 10 44C10 40 10 38 10 36C10 34 10 32.5 10 32C10 31.5 10 30 10 28C10 26 10 24 10 20C10 14.478 14.478 10 20 10Z;
              M20 10H44C49.522 10 54 14.478 54 20C54 24 54 26 54 28C54 30 50 31.5 46 32C50 32.5 54 34 54 36C54 38 54 40 54 44C54 49.522 49.522 54 44 54H20C14.478 54 10 49.522 10 44C10 40 10 38 10 36C10 34 14 32.5 18 32C14 31.5 10 30 10 28C10 26 10 24 10 20C10 14.478 14.478 10 20 10Z;
              M20 10H44C49.522 10 54 14.478 54 20C54 24 54 26 54 28C54 30 54 31.5 54 32C54 32.5 54 34 54 36C54 38 54 40 54 44C54 49.522 49.522 54 44 54H20C14.478 54 10 49.522 10 44C10 40 10 38 10 36C10 34 10 32.5 10 32C10 31.5 10 30 10 28C10 26 10 24 10 20C10 14.478 14.478 10 20 10Z;
              M20 10H44C49.522 10 54 14.478 54 20C54 24 54 26 54 28C54 30 54 31.5 54 32C54 32.5 54 34 54 36C54 38 54 40 54 44C54 49.522 49.522 54 44 54H20C14.478 54 10 49.522 10 44C10 40 10 38 10 36C10 34 10 32.5 10 32C10 31.5 10 30 10 28C10 26 10 24 10 20C10 14.478 14.478 10 20 10Z"
      keyTimes="0;0.70;0.76;0.82;1" calcMode="spline"
      keySplines="0.2 0.8 0.2 1; 0.2 0.8 0.2 1; 0.2 0.8 0.2 1; 0.2 0.8 0.2 1"/>
  </path>
  <path d="M20 10H44C49.522 10 54 14.478 54 20C54 24 54 26 54 28C54 30 54 31.5 54 32C54 32.5 54 34 54 36C54 38 54 40 54 44C54 49.522 49.522 54 44 54H20C14.478 54 10 49.522 10 44C10 40 10 38 10 36C10 34 10 32.5 10 32C10 31.5 10 30 10 28C10 26 10 24 10 20C10 14.478 14.478 10 20 10Z" fill="url(#s)" opacity="0.7"/>
  <path d="M20 10H44C49.522 10 54 14.478 54 20C54 24 54 26 54 28C54 30 54 31.5 54 32C54 32.5 54 34 54 36C54 38 54 40 54 44C54 49.522 49.522 54 44 54H20C14.478 54 10 49.522 10 44C10 40 10 38 10 36C10 34 10 32.5 10 32C10 31.5 10 30 10 28C10 26 10 24 10 20C10 14.478 14.478 10 20 10Z" fill="none" stroke="rgba(255,255,255,0.20)" stroke-width="1"/>
  <rect x="16" y="28.5" width="32" height="7" rx="3.5" fill="rgba(0,0,0,0.26)"/>
  <rect x="17" y="29.5" width="30" height="5" rx="2.5" fill="rgba(255,255,255,0.34)"/>
</svg>


